<svg height="200px" width="200px" version="1.1" id="Layer_1" xmlns="http://www.w3.org/2000/svg" xmlns:xlink="http://www.w3.org/1999/xlink" viewBox="0 0 512 512" xml:space="preserve" fill="#000000" transform="rotate(0)"><g id="SVGRepo_bgCarrier" stroke-width="0"></g><g id="SVGRepo_tracerCarrier" stroke-linecap="round" stroke-linejoin="round"></g><g id="SVGRepo_iconCarrier"> <path style="fill:#E4EAF6;" d="M392,144H120C58.144,144,8,194.144,8,256s50.144,112,112,112c26.16,0,50.223-8.97,69.286-24h133.427 c19.063,15.03,43.127,24,69.286,24c61.856,0,112-50.144,112-112S453.856,144,392,144z"></path> <circle style="fill:#D7DEED;" cx="120" cy="256" r="80"></circle> <circle style="fill:#707487;" cx="392" cy="256" r="80"></circle> <circle style="fill:#00DCC8;" cx="352" cy="256" r="16"></circle> <circle style="fill:#82B9FF;" cx="392" cy="216" r="16"></circle> <circle style="fill:#FFCD46;" cx="392" cy="296" r="16"></circle> <circle style="fill:#FF6464;" cx="432" cy="256" r="16"></circle> <path style="fill:#707487;" d="M160,240h-24v-24c0-4.4-3.6-8-8-8h-16c-4.4,0-8,3.6-8,8v24H80c-4.4,0-8,3.6-8,8v16c0,4.4,3.6,8,8,8 h24v24c0,4.4,3.6,8,8,8h16c4.4,0,8-3.6,8-8v-24h24c4.4,0,8-3.6,8-8v-16C168,243.6,164.4,240,160,240z"></path> <path d="M208,256c0,48.523-39.477,88-88,88s-88-39.477-88-88s39.477-88,88-88c16.827,0,33.185,4.767,47.306,13.785 c3.724,2.378,4.815,7.325,2.437,11.048c-2.378,3.724-7.326,4.814-11.048,2.437C147.149,187.897,133.77,184,120,184 c-39.701,0-72,32.299-72,72s32.299,72,72,72s72-32.299,72-72c0-14.622-4.355-28.694-12.595-40.695 c-2.501-3.643-1.575-8.623,2.067-11.124c3.643-2.501,8.622-1.575,11.123,2.067C202.673,220.927,208,238.131,208,256z M464.595,206.248c-2.501-3.642-7.482-4.568-11.123-2.067c-3.643,2.5-4.568,7.481-2.067,11.124C459.645,227.306,464,241.378,464,256 c0,39.701-32.299,72-72,72s-72-32.299-72-72s32.299-72,72-72c13.77,0,27.149,3.897,38.694,11.27 c3.723,2.378,8.67,1.288,11.048-2.437c2.378-3.724,1.288-8.67-2.436-11.048C425.185,172.767,408.827,168,392,168 c-48.523,0-88,39.477-88,88s39.477,88,88,88s88-39.477,88-88C480,238.131,474.673,220.927,464.595,206.248z M512,256 c0,66.168-53.832,120-120,120c-26.286,0-51.122-8.289-72.009-24H192.009c-20.887,15.711-45.723,24-72.009,24 C53.832,376,0,322.168,0,256s53.832-120,120-120h272C458.168,136,512,189.832,512,256z M496,256c0-57.346-46.654-104-104-104H120 c-57.346,0-104,46.654-104,104s46.654,104,104,104c23.599,0,45.844-7.705,64.333-22.282c1.411-1.113,3.156-1.718,4.953-1.718 h133.427c1.797,0,3.542,0.605,4.953,1.718C346.156,352.295,368.402,360,392,360C449.346,360,496,313.346,496,256z M160,232 c8.822,0,16,7.178,16,16v16c0,8.822-7.178,16-16,16h-16v16c0,8.822-7.178,16-16,16h-16c-8.822,0-16-7.178-16-16v-16H80 c-8.822,0-16-7.178-16-16v-16c0-8.822,7.178-16,16-16h16v-16c0-8.822,7.178-16,16-16h16c8.822,0,16,7.178,16,16v16H160z M160,248 h-24c-4.419,0-8-3.582-8-8v-24h-16v24c0,4.418-3.581,8-8,8H80v16h24c4.419,0,8,3.582,8,8v24h16v-24c0-4.418,3.581-8,8-8h24V248z M352,232c13.234,0,24,10.767,24,24s-10.766,24-24,24s-24-10.767-24-24S338.766,232,352,232z M352,248c-4.411,0-8,3.589-8,8 c0,4.411,3.589,8,8,8s8-3.589,8-8S356.411,248,352,248z M368,216c0-13.233,10.766-24,24-24s24,10.767,24,24s-10.766,24-24,24 S368,229.233,368,216z M384,216c0,4.411,3.589,8,8,8s8-3.589,8-8s-3.589-8-8-8S384,211.589,384,216z M368,296 c0-13.233,10.766-24,24-24s24,10.767,24,24s-10.766,24-24,24S368,309.233,368,296z M384,296c0,4.411,3.589,8,8,8s8-3.589,8-8 s-3.589-8-8-8S384,291.589,384,296z M432,280c-13.234,0-24-10.767-24-24s10.766-24,24-24s24,10.767,24,24S445.234,280,432,280z M432,264c4.411,0,8-3.589,8-8s-3.589-8-8-8s-8,3.589-8,8C424,260.411,427.589,264,432,264z M235.563,289.344l-24,16 c-3.676,2.451-4.67,7.418-2.219,11.094c1.542,2.313,4.078,3.564,6.664,3.564c1.525,0,3.066-0.436,4.43-1.345l24-16 c3.676-2.451,4.67-7.418,2.219-11.094C244.206,287.886,239.239,286.893,235.563,289.344z M283.563,289.344l-24,16 c-3.676,2.451-4.67,7.418-2.219,11.094c1.542,2.313,4.078,3.564,6.664,3.564c1.525,0,3.066-0.436,4.43-1.345l24-16 c3.676-2.451,4.67-7.418,2.219-11.094C292.206,287.886,287.239,286.893,283.563,289.344z M296,176h-80c-4.419,0-8,3.582-8,8 s3.581,8,8,8h80c4.418,0,8-3.582,8-8S300.418,176,296,176z"></path> </g></svg>